<?xml version="1.0" standalone="no"?>
<!DOCTYPE svg PUBLIC "-//W3C//DTD SVG 20010904//EN"
 "http://www.w3.org/TR/2001/REC-SVG-20010904/DTD/svg10.dtd">
<svg version="1.0" xmlns="http://www.w3.org/2000/svg"
 width="512.000000pt" height="512.000000pt" viewBox="0 0 512.000000 512.000000"
 preserveAspectRatio="xMidYMid meet">
<metadata>
Created by potrace 1.14, written by Peter Selinger 2001-2017
</metadata>
<g transform="translate(0.000000,512.000000) scale(0.100000,-0.100000)"
fill="#000000" stroke="none">
<path d="M113 5037 c-12 -5 -26 -21 -31 -36 -13 -38 -14 -4848 0 -4883 5 -14
22 -31 36 -36 32 -12 4868 -10 4894 2 28 13 40 63 23 96 -8 15 -22 30 -30 34
-9 3 -1090 6 -2401 6 l-2384 0 0 645 c0 355 4 645 8 645 10 0 29 39 27 55 -2
24 -17 55 -26 55 -5 0 -9 314 -9 805 0 443 2 805 4 805 18 0 95 -35 129 -59
136 -95 211 -209 397 -601 110 -232 119 -255 113 -295 -4 -35 -2 -46 16 -64
11 -11 31 -21 44 -21 16 -1 33 -18 62 -63 56 -87 178 -206 251 -244 205 -108
436 -78 637 84 133 107 244 258 450 613 193 334 268 443 367 536 60 56 90 76
147 99 107 44 266 17 371 -62 91 -69 139 -130 308 -388 104 -161 117 -184 115
-221 -2 -50 23 -76 76 -78 24 -1 56 -13 88 -34 72 -47 143 -65 234 -60 175 11
288 117 451 424 117 220 162 288 230 353 55 52 140 88 216 90 60 2 89 72 50
118 -22 25 -30 28 -81 26 -109 -4 -197 -46 -298 -141 -71 -68 -122 -145 -228
-343 -135 -254 -198 -333 -294 -370 -74 -29 -180 -3 -237 57 -84 88 -109 121
-189 244 -179 275 -233 345 -329 421 -113 90 -230 132 -370 133 -137 0 -244
-49 -364 -167 -100 -99 -192 -227 -321 -450 l-98 -169 -18 24 c-10 12 -19 26
-19 29 0 4 -13 12 -30 19 -55 23 -109 -17 -101 -75 3 -21 43 -79 74 -107 18
-16 17 -20 -47 -115 -168 -253 -321 -380 -482 -401 -130 -17 -239 23 -340 123
-76 77 -154 191 -154 226 0 16 -12 38 -29 55 -17 17 -63 100 -107 194 -105
225 -197 402 -249 480 -119 179 -265 295 -400 319 l-40 7 -5 816 c-5 745 -6
819 -22 834 -20 20 -55 25 -85 11z"/>
<path d="M4842 3910 c-28 -27 -29 -80 -2 -105 29 -26 113 -26 139 0 18 18 25
42 22 72 -3 28 -45 53 -91 53 -33 0 -53 -6 -68 -20z"/>
<path d="M4568 3850 c-65 -19 -108 -62 -108 -106 0 -24 47 -64 76 -64 35 0
122 50 131 75 11 31 10 38 -3 66 -19 38 -42 45 -96 29z"/>
<path d="M4253 3615 c-45 -36 -76 -89 -68 -117 12 -38 36 -58 70 -58 26 0 42
10 78 49 39 42 45 54 42 82 -5 38 -36 69 -69 69 -11 0 -35 -11 -53 -25z"/>
<path d="M4049 3336 c-26 -13 -78 -84 -84 -116 -8 -43 33 -90 73 -84 6 1 16 2
22 3 16 2 58 52 76 92 14 32 15 43 4 68 -15 37 -57 54 -91 37z"/>
<path d="M3857 3009 c-24 -14 -67 -102 -67 -137 0 -53 73 -87 114 -53 18 15
53 81 57 107 5 35 -10 70 -36 82 -31 14 -44 15 -68 1z"/>
<path d="M1439 2890 c-50 -26 -77 -57 -74 -85 5 -47 39 -75 83 -69 37 6 113
55 124 80 20 44 -7 88 -60 99 -9 1 -42 -10 -73 -25z"/>
<path d="M1740 2902 c-26 -21 -30 -73 -9 -98 18 -22 104 -64 132 -64 51 0 83
62 57 111 -13 23 -101 69 -134 69 -13 0 -34 -8 -46 -18z"/>
<path d="M1170 2667 c-70 -59 -93 -119 -61 -158 24 -30 83 -32 109 -3 70 77
80 119 36 153 -30 24 -62 26 -84 8z"/>
<path d="M2255 2370 c-53 -20 -63 -68 -29 -129 47 -81 88 -99 138 -60 35 27
33 61 -6 126 -33 55 -68 76 -103 63z"/>
<path d="M3537 2329 c-22 -13 -67 -101 -67 -132 0 -33 20 -56 57 -66 41 -12
73 11 99 71 27 67 27 85 0 113 -26 26 -59 31 -89 14z"/>
<path d="M696 2064 c-86 -87 -81 -173 11 -174 25 0 39 9 72 46 23 26 41 50 42
53 6 45 3 58 -17 78 -31 31 -74 30 -108 -3z"/>
<path d="M2437 2046 c-10 -8 -22 -27 -26 -44 -8 -26 -4 -38 25 -81 52 -78 105
-94 143 -45 26 33 26 45 1 93 -38 75 -101 109 -143 77z"/>
<path d="M3363 2004 c-16 -7 -71 -94 -74 -119 -8 -55 47 -99 96 -77 32 15 85
95 85 130 0 50 -58 86 -107 66z"/>
<path d="M468 1802 c-62 -44 -88 -75 -88 -109 0 -40 30 -73 67 -73 51 0 133
78 133 126 0 24 -35 59 -67 67 -12 2 -32 -2 -45 -11z"/>
<path d="M2682 1757 c-34 -36 -29 -81 11 -110 77 -58 126 -66 160 -25 31 38
19 77 -38 120 -59 45 -101 50 -133 15z"/>
<path d="M3075 1715 c-62 -28 -78 -46 -77 -87 1 -37 34 -68 72 -68 29 0 106
34 132 57 26 23 23 75 -5 101 -29 27 -58 27 -122 -3z"/>
</g>
</svg>
